<svg xmlns="http://www.w3.org/2000/svg" viewBox="0 0 255.59473 338.65432"><defs><style>.b5f8c91c-72f6-45e7-97b4-a1a2f072fe94,.e0161d23-a664-47c9-8b30-d21e8d44187b{fill:#c4227d;}.e6e94dc7-98fa-46cb-91e2-ad6f5de60c07{fill:#fff;}.e8f6643e-94c0-4763-8b30-aa123f008fa4{fill:#fdb833;}.b5f8c91c-72f6-45e7-97b4-a1a2f072fe94{stroke:#c4227d;stroke-miterlimit:10;}</style></defs><title>carine</title><g id="b7c8ff88-ee47-46ac-a99a-4836e1c13956" data-name="Calque 1"><rect class="e0161d23-a664-47c9-8b30-d21e8d44187b" x="47.13965" y="276.29299" width="158" height="9"/><circle class="e0161d23-a664-47c9-8b30-d21e8d44187b" cx="126.13965" cy="139.29299" r="94"/><circle class="e6e94dc7-98fa-46cb-91e2-ad6f5de60c07" cx="126.63965" cy="139.79299" r="63"/><circle class="e0161d23-a664-47c9-8b30-d21e8d44187b" cx="126.13965" cy="139.29299" r="39"/><circle class="e0161d23-a664-47c9-8b30-d21e8d44187b" cx="126.13965" cy="139.29299" r="15.5"/><path class="e6e94dc7-98fa-46cb-91e2-ad6f5de60c07" d="M423.5,428c.50641,0,1.006.02826,1.5.07574v-8.05047c-.33191-.01422-.66461-.02527-1-.02527a22.88984,22.88984,0,0,0-12.75806,3.863q2.12724,3.19079,4.25446,6.38165A15.404,15.404,0,0,1,423.5,428Z" transform="translate(-297.36035 -304.20701)"/><path class="e6e94dc7-98fa-46cb-91e2-ad6f5de60c07" d="M438.97473,444a15.49111,15.49111,0,1,1-28.5202-8.84912l-6.80884-2.85968A22.99843,22.99843,0,1,0,446.97473,444Z" transform="translate(-297.36035 -304.20701)"/><path class="e8f6643e-94c0-4763-8b30-aa123f008fa4" d="M527.55547,526.08864a5.74768,5.74768,0,0,0,.96151-7.40793C523.166,510.39847,512.25055,486.311,528,443c0,0,32.20295-95.66171-50.87527-120.14378a84.47529,84.47529,0,0,1-13.168-5.05905C440.5965,306.40606,351.2114,272.791,317,386c-3.677,12.16767-3.114,27.15737-1.13654,39.71374,4.32959,27.49175,10.96078,80.53928.20114,93.82937a5.82588,5.82588,0,0,0,.63443,8.02968c5.03783,4.47828,16.80721,9.45783,44.07443,5.74473a2.63762,2.63762,0,0,0,2.28978-2.53281l.35333-12.36513a5.81679,5.81679,0,0,0-2.05417-4.61831c-6.44608-5.43958-25.0616-23.63057-21.89367-50.04591.0189-.15761.03084-.31082.03479-.46951.07113-2.854,1.57847-33.65473,33.52032-57.43356a5.95042,5.95042,0,0,1,.99983-.6003c6.2291-2.9571,66.07337-31.56252,73.91209-42.78558a1.11489,1.11489,0,0,1,1.541-.32106c7.11261,4.80077,50.62178,35.92879,49.03731,78.00858a5.33033,5.33033,0,0,0,.01439.661c.3996,4.59777,4.53715,58.21663-18.38777,73.19383A5.82748,5.82748,0,0,0,477.5,518.88876v14.09835a1.7028,1.7028,0,0,0,1.51985,1.66311C485.98739,535.27144,515.069,537.11736,527.55547,526.08864Z" transform="translate(-297.36035 -304.20701)"/><path class="e0161d23-a664-47c9-8b30-d21e8d44187b" d="M424,545a92.56829,92.56829,0,0,1-45.71643-12H377v41h94V533h-1.28357A92.56829,92.56829,0,0,1,424,545Z" transform="translate(-297.36035 -304.20701)"/><path class="b5f8c91c-72f6-45e7-97b4-a1a2f072fe94" d="M329.03564,641.88281H306.59326a9.2537,9.2537,0,0,1-1.854-.20312,9.531,9.531,0,0,1-1.96192-.63477,9.03213,9.03213,0,0,1-1.85449-1.1123,7.55341,7.55341,0,0,1-1.56738-1.65039,8.2,8.2,0,0,1-1.08838-2.249,9.49165,9.49165,0,0,1-.40674-2.88281V616.30664a9.29736,9.29736,0,0,1,.20313-1.85449,9.52909,9.52909,0,0,1,.63427-1.96192,8.7584,8.7584,0,0,1,1.12452-1.85449,7.80107,7.80107,0,0,1,1.66308-1.56738,8.20237,8.20237,0,0,1,2.23682-1.08789,9.37247,9.37247,0,0,1,2.87109-.40723h22.44238V613.794H306.59326a2.53054,2.53054,0,0,0-1.86621.6455,2.59913,2.59913,0,0,0-.646,1.91407v16.79687a2.2887,2.2887,0,0,0,2.51221,2.51172h22.44238Z" transform="translate(-297.36035 -304.20701)"/><path class="b5f8c91c-72f6-45e7-97b4-a1a2f072fe94" d="M339.41943,638.74805a2.92078,2.92078,0,0,1-.25146,1.209,3.21906,3.21906,0,0,1-.66992.98047,3.06532,3.06532,0,0,1-.98047.6582,3.00161,3.00161,0,0,1-1.18457.23926,3.06546,3.06546,0,0,1-3.08643-3.08691,2.99,2.99,0,0,1,.23926-1.1836,3.07633,3.07633,0,0,1,.65771-.98144,3.27061,3.27061,0,0,1,.98145-.66992,2.933,2.933,0,0,1,1.208-.251,2.88072,2.88072,0,0,1,1.18457.251,3.20792,3.20792,0,0,1,1.65039,1.65136A2.86285,2.86285,0,0,1,339.41943,638.74805Z" transform="translate(-297.36035 -304.20701)"/><path class="b5f8c91c-72f6-45e7-97b4-a1a2f072fe94" d="M378.63379,641.88281h-6.2207v-8.42187H350.54492v8.42187h-6.2207V624.72852a18.0909,18.0909,0,0,1,1.292-6.915,16.12852,16.12852,0,0,1,3.58887-5.43067,16.32045,16.32045,0,0,1,5.43115-3.541,18.06893,18.06893,0,0,1,6.84277-1.26856h14.02051a3.14653,3.14653,0,0,1,1.22022.23926,3.07908,3.07908,0,0,1,1.6748,1.6748,3.14765,3.14765,0,0,1,.23926,1.21973Zm-28.08887-14.64258h21.86817V613.794H361.479q-.2871,0-1.20849.084a12.22638,12.22638,0,0,0-2.12891.41895,13.24924,13.24924,0,0,0-2.54834,1.02832,8.94939,8.94939,0,0,0-2.46435,1.91406,9.79857,9.79857,0,0,0-1.8545,3.05078,11.999,11.999,0,0,0-.72949,4.43848Z" transform="translate(-297.36035 -304.20701)"/><path class="b5f8c91c-72f6-45e7-97b4-a1a2f072fe94" d="M390.35742,638.74805a2.92078,2.92078,0,0,1-.25146,1.209,3.21923,3.21923,0,0,1-.66992.98047,3.06532,3.06532,0,0,1-.98047.6582,3.00161,3.00161,0,0,1-1.18457.23926,3.06546,3.06546,0,0,1-3.08643-3.08691,2.99,2.99,0,0,1,.23926-1.1836,3.07617,3.07617,0,0,1,.65771-.98144,3.27061,3.27061,0,0,1,.98145-.66992,2.933,2.933,0,0,1,1.208-.251,2.88072,2.88072,0,0,1,1.18457.251,3.20792,3.20792,0,0,1,1.65039,1.65136A2.86285,2.86285,0,0,1,390.35742,638.74805Z" transform="translate(-297.36035 -304.20701)"/><path class="b5f8c91c-72f6-45e7-97b4-a1a2f072fe94" d="M430.19385,619.10547a12.69175,12.69175,0,0,1-.52637,3.80469,10.67529,10.67529,0,0,1-1.42383,2.9541,10.03477,10.03477,0,0,1-2.06933,2.18945,12.45888,12.45888,0,0,1-2.45215,1.49512,11.78664,11.78664,0,0,1-2.584.84961,12.40742,12.40742,0,0,1-2.45263.26367l12.9917,11.2207h-9.61817l-12.96777-11.2207h-4.47412v-6.2207h14.06836a7.20017,7.20017,0,0,0,2.14111-.49121,5.30626,5.30626,0,0,0,1.6748-1.06446,4.54183,4.54183,0,0,0,1.08887-1.61523,5.73556,5.73556,0,0,0,.38281-2.165v-3.92383a1.91832,1.91832,0,0,0-.13183-.80176.93074.93074,0,0,0-.76563-.56152,3.85359,3.85359,0,0,0-.41845-.02441H402.12891v28.08886H395.9082V610.707a3.1387,3.1387,0,0,1,.23926-1.21973,3.181,3.181,0,0,1,.65772-1.00488,2.94845,2.94845,0,0,1,.99316-.66992,3.20769,3.20769,0,0,1,1.24414-.23926h23.61475a7.48792,7.48792,0,0,1,3.51709.75391,7.1655,7.1655,0,0,1,2.333,1.88965,7.35488,7.35488,0,0,1,1.292,2.45312,8.61161,8.61161,0,0,1,.39453,2.46387Z" transform="translate(-297.36035 -304.20701)"/><path class="b5f8c91c-72f6-45e7-97b4-a1a2f072fe94" d="M440.93652,638.74805a2.92078,2.92078,0,0,1-.25146,1.209,3.21906,3.21906,0,0,1-.66992.98047,3.06532,3.06532,0,0,1-.98047.6582,3.00161,3.00161,0,0,1-1.18457.23926,3.06546,3.06546,0,0,1-3.08643-3.08691,2.99,2.99,0,0,1,.23926-1.1836,3.07633,3.07633,0,0,1,.65771-.98144,3.27061,3.27061,0,0,1,.98145-.66992,2.933,2.933,0,0,1,1.208-.251,2.88072,2.88072,0,0,1,1.18457.251,3.20792,3.20792,0,0,1,1.65039,1.65136A2.86285,2.86285,0,0,1,440.93652,638.74805Z" transform="translate(-297.36035 -304.20701)"/><path class="b5f8c91c-72f6-45e7-97b4-a1a2f072fe94" d="M452.75586,641.88281h-6.2207V607.57324h6.2207Z" transform="translate(-297.36035 -304.20701)"/><path class="b5f8c91c-72f6-45e7-97b4-a1a2f072fe94" d="M464.52734,638.74805a2.92078,2.92078,0,0,1-.25146,1.209,3.21906,3.21906,0,0,1-.66992.98047,3.06532,3.06532,0,0,1-.98047.6582,3.00161,3.00161,0,0,1-1.18457.23926,3.06546,3.06546,0,0,1-3.08643-3.08691,2.99,2.99,0,0,1,.23926-1.1836,3.07633,3.07633,0,0,1,.65771-.98144,3.27061,3.27061,0,0,1,.98145-.66992,2.933,2.933,0,0,1,1.208-.251,2.88072,2.88072,0,0,1,1.18457.251,3.20792,3.20792,0,0,1,1.65039,1.65136A2.86285,2.86285,0,0,1,464.52734,638.74805Z" transform="translate(-297.36035 -304.20701)"/><path class="b5f8c91c-72f6-45e7-97b4-a1a2f072fe94" d="M504.36377,639.22656a3.07527,3.07527,0,0,1-.251,1.24414,3.2098,3.2098,0,0,1-.66992.99317,3.03727,3.03727,0,0,1-.99316.6582,3.14653,3.14653,0,0,1-1.22022.23926,3.3731,3.3731,0,0,1-1.16064-.21485,2.72189,2.72189,0,0,1-1.04053-.69433l-22.72949-23.73438v24.165h-6.2207V610.22852a2.97517,2.97517,0,0,1,.53857-1.73438,3.33357,3.33357,0,0,1,1.37549-1.16016,3.16039,3.16039,0,0,1,1.81836-.17968,2.96411,2.96411,0,0,1,1.603.873l22.7295,23.71094v-24.165h6.2207Z" transform="translate(-297.36035 -304.20701)"/><path class="b5f8c91c-72f6-45e7-97b4-a1a2f072fe94" d="M516.0874,638.74805a2.92078,2.92078,0,0,1-.25146,1.209,3.21906,3.21906,0,0,1-.66992.98047,3.06532,3.06532,0,0,1-.98047.6582,3.00161,3.00161,0,0,1-1.18457.23926,3.06546,3.06546,0,0,1-3.08643-3.08691,2.99,2.99,0,0,1,.23926-1.1836,3.07617,3.07617,0,0,1,.65771-.98144,3.27061,3.27061,0,0,1,.98145-.66992,2.933,2.933,0,0,1,1.208-.251,2.88072,2.88072,0,0,1,1.18457.251,3.20792,3.20792,0,0,1,1.65039,1.65136A2.86285,2.86285,0,0,1,516.0874,638.74805Z" transform="translate(-297.36035 -304.20701)"/><path class="b5f8c91c-72f6-45e7-97b4-a1a2f072fe94" d="M552.45508,641.88281H530.01172a9.94654,9.94654,0,0,1-2.82227-.45508,8.28406,8.28406,0,0,1-2.83593-1.49511,8.37975,8.37975,0,0,1-2.17676-2.70313,8.681,8.681,0,0,1-.874-4.0791V610.707a3.13053,3.13053,0,0,1,.24024-1.21973,3.1713,3.1713,0,0,1,.65723-1.00488,2.94845,2.94845,0,0,1,.99316-.66992,3.20945,3.20945,0,0,1,1.24414-.23926h28.01758V613.794H527.52344v19.35644a2.52451,2.52451,0,0,0,.64648,1.86524,2.5578,2.5578,0,0,0,1.89063.64648h22.39453Zm-2.79981-14.02051H530.01172v-6.26855h19.64355Z" transform="translate(-297.36035 -304.20701)"/></g></svg>